<svg width="20" height="21" viewBox="0 0 20 21" fill="none" xmlns="http://www.w3.org/2000/svg">
<path d="M10 7.03003C9.20435 7.03003 8.44129 7.3461 7.87868 7.90871C7.31607 8.47132 7 9.23438 7 10.03C7 10.8257 7.31607 11.5887 7.87868 12.1514C8.44129 12.714 9.20435 13.03 10 13.03C10.7956 13.03 11.5587 12.714 12.1213 12.1514C12.6839 11.5887 13 10.8257 13 10.03C13 9.23438 12.6839 8.47132 12.1213 7.90871C11.5587 7.3461 10.7956 7.03003 10 7.03003ZM10 5.03003C11.3261 5.03003 12.5979 5.55681 13.5355 6.4945C14.4732 7.43218 15 8.70395 15 10.03C15 11.3561 14.4732 12.6279 13.5355 13.5656C12.5979 14.5032 11.3261 15.03 10 15.03C8.67392 15.03 7.40215 14.5032 6.46447 13.5656C5.52678 12.6279 5 11.3561 5 10.03C5 8.70395 5.52678 7.43218 6.46447 6.4945C7.40215 5.55681 8.67392 5.03003 10 5.03003ZM16.5 4.78003C16.5 5.11155 16.3683 5.42949 16.1339 5.66391C15.8995 5.89833 15.5815 6.03003 15.25 6.03003C14.9185 6.03003 14.6005 5.89833 14.3661 5.66391C14.1317 5.42949 14 5.11155 14 4.78003C14 4.44851 14.1317 4.13057 14.3661 3.89615C14.6005 3.66173 14.9185 3.53003 15.25 3.53003C15.5815 3.53003 15.8995 3.66173 16.1339 3.89615C16.3683 4.13057 16.5 4.44851 16.5 4.78003ZM10 2.03003C7.526 2.03003 7.122 2.03703 5.971 2.08803C5.187 2.12503 4.661 2.23003 4.173 2.42003C3.76462 2.56997 3.39541 2.81029 3.093 3.12303C2.78001 3.42543 2.53935 3.79461 2.389 4.20303C2.199 4.69303 2.094 5.21803 2.058 6.00103C2.006 7.10503 2 7.49103 2 10.03C2 12.504 2.007 12.908 2.058 14.059C2.095 14.842 2.2 15.369 2.389 15.856C2.559 16.291 2.759 16.604 3.091 16.936C3.428 17.272 3.741 17.473 4.171 17.639C4.665 17.83 5.191 17.936 5.971 17.972C7.075 18.024 7.461 18.03 10 18.03C12.474 18.03 12.878 18.023 14.029 17.972C14.811 17.935 15.338 17.83 15.826 17.641C16.2338 17.4903 16.6027 17.2505 16.906 16.939C17.243 16.602 17.444 16.289 17.61 15.859C17.8 15.366 17.906 14.839 17.942 14.059C17.994 12.955 18 12.569 18 10.03C18 7.55603 17.993 7.15203 17.942 6.00103C17.905 5.21903 17.8 4.69103 17.61 4.20303C17.4593 3.79503 17.2191 3.42599 16.907 3.12303C16.6047 2.80988 16.2355 2.5692 15.827 2.41903C15.337 2.22903 14.811 2.12403 14.029 2.08803C12.925 2.03603 12.539 2.03003 10 2.03003ZM10 0.0300293C12.717 0.0300293 13.056 0.0400292 14.122 0.0900292C15.187 0.140029 15.912 0.307029 16.55 0.555029C17.21 0.809029 17.766 1.15303 18.322 1.70803C18.8305 2.20793 19.224 2.81262 19.475 3.48003C19.722 4.11703 19.89 4.84303 19.94 5.90803C19.987 6.97403 20 7.31303 20 10.03C20 12.747 19.99 13.086 19.94 14.152C19.89 15.217 19.722 15.942 19.475 16.58C19.2247 17.2478 18.8311 17.8526 18.322 18.352C17.822 18.8603 17.2173 19.2538 16.55 19.505C15.913 19.752 15.187 19.92 14.122 19.97C13.056 20.017 12.717 20.03 10 20.03C7.283 20.03 6.944 20.02 5.878 19.97C4.813 19.92 4.088 19.752 3.45 19.505C2.78233 19.2545 2.17753 18.861 1.678 18.352C1.16941 17.8522 0.775931 17.2475 0.525 16.58C0.277 15.943 0.11 15.217 0.0599999 14.152C0.0129999 13.086 0 12.747 0 10.03C0 7.31303 0.00999994 6.97403 0.0599999 5.90803C0.11 4.84203 0.277 4.11803 0.525 3.48003C0.775236 2.81221 1.1688 2.20735 1.678 1.70803C2.17767 1.19926 2.78243 0.805759 3.45 0.555029C4.088 0.307029 4.812 0.140029 5.878 0.0900292C6.944 0.0430292 7.283 0.0300293 10 0.0300293Z" fill="#2E383C"/>
</svg>
