<svg width="18" height="19" viewBox="0 0 18 19" fill="none" xmlns="http://www.w3.org/2000/svg">
<path d="M15.335 15.369H12.67V11.192C12.67 10.196 12.65 8.91403 11.28 8.91403C9.891 8.91403 9.679 9.99803 9.679 11.119V15.369H7.013V6.78003H9.573V7.95003H9.608C9.966 7.27603 10.836 6.56303 12.136 6.56303C14.836 6.56303 15.336 8.34103 15.336 10.654V15.369H15.335ZM4.003 5.60503C3.79956 5.60529 3.59806 5.5654 3.41006 5.48764C3.22207 5.40987 3.05127 5.29577 2.90746 5.15187C2.76365 5.00796 2.64965 4.83709 2.57201 4.64904C2.49437 4.461 2.4546 4.25947 2.455 4.05603C2.4552 3.74986 2.54618 3.45063 2.71644 3.19618C2.8867 2.94172 3.12859 2.74346 3.41153 2.62648C3.69447 2.5095 4.00574 2.47905 4.30598 2.53897C4.60622 2.59889 4.88196 2.7465 5.09831 2.96314C5.31466 3.17977 5.46191 3.45569 5.52145 3.75601C5.58099 4.05633 5.55013 4.36756 5.43278 4.65035C5.31543 4.93313 5.11687 5.17477 4.86219 5.3447C4.60751 5.51463 4.30917 5.60523 4.003 5.60503ZM5.339 15.369H2.666V6.78003H5.34V15.369H5.339ZM16.67 0.0300293H1.329C0.593 0.0300293 0 0.610029 0 1.32703V16.733C0 17.45 0.594 18.03 1.328 18.03H16.666C17.4 18.03 18 17.45 18 16.733V1.32703C18 0.610029 17.4 0.0300293 16.666 0.0300293H16.67Z" fill="#2E383C"/>
</svg>
