<svg width="310" height="48" viewBox="0 0 310 48" fill="none" xmlns="http://www.w3.org/2000/svg">
<path d="M1.05352 27.0252H0V13.5722H1.05352C2.78343 13.5751 4.492 13.1903 6.05359 12.4459C7.61518 11.7016 8.99007 10.6167 10.0772 9.27105C12.4247 6.36882 15.3928 4.02956 18.7632 2.42519C22.1337 0.820823 25.8208 -0.00785822 29.5536 5.61602e-05H30.6071V13.4531H29.5536C27.8234 13.4496 26.1144 13.8336 24.5521 14.5772C22.9897 15.3207 21.6138 16.4047 20.5254 17.7496C18.179 20.6523 15.2119 22.9923 11.8422 24.5974C8.47255 26.2026 4.78597 27.0322 1.05352 27.0252Z" fill="#FF5500"/>
<path d="M31.6605 27.0252H30.6069V13.5722H31.6605C33.391 13.5751 35.1003 13.1903 36.6626 12.446C38.2249 11.7017 39.6007 10.6168 40.6887 9.27105C43.0353 6.36893 46.0025 4.02967 49.3722 2.42528C52.7419 0.820891 56.4284 -0.0078292 60.1605 5.57426e-05H61.2095V13.4531H60.1605C58.4303 13.4492 56.7211 13.8332 55.1588 14.5767C53.5964 15.3202 52.2205 16.4044 51.1323 17.7496C48.7859 20.6523 45.8188 22.9923 42.4492 24.5974C39.0795 26.2026 35.3929 27.0322 31.6605 27.0252Z" fill="#FF5500"/>
<path d="M74.6625 13.5583H61.2095V27.0114H74.6625V13.5583Z" fill="#FF5500"/>
<path d="M89.2241 26.865V13.3982H91.6106L96.1911 22.3623L100.73 13.3982H103.135V26.865H101.092V16.916L96.9698 24.9411H95.3895L91.267 16.9344V26.865H89.2241Z" fill="#14181A"/>
<path d="M109.017 27.0939C108.327 27.1198 107.641 26.9817 107.015 26.6908C106.529 26.4564 106.121 26.0856 105.842 25.6235C105.587 25.1825 105.454 24.6812 105.458 24.1715C105.444 23.7465 105.536 23.3249 105.725 22.9438C105.913 22.5627 106.193 22.234 106.539 21.9866C107.45 21.3908 108.53 21.1064 109.617 21.1758H112.118V21.0064C112.141 20.7 112.099 20.3922 111.995 20.1032C111.891 19.8142 111.727 19.5506 111.513 19.3299C111.077 18.949 110.511 18.752 109.933 18.7802C109.412 18.7694 108.9 18.9146 108.462 19.197C108.256 19.3341 108.081 19.5138 107.95 19.7239C107.819 19.9341 107.734 20.1699 107.702 20.4155H105.673C105.72 19.7656 105.965 19.1457 106.374 18.6382C106.787 18.1406 107.315 17.7508 107.913 17.5022C108.563 17.2349 109.261 17.1009 109.965 17.1083C111.095 17.0363 112.208 17.4132 113.061 18.1573C113.433 18.5308 113.723 18.9782 113.911 19.4704C114.1 19.9627 114.183 20.4891 114.156 21.0155V26.8649H112.388L112.223 25.2296C111.946 25.7667 111.54 26.2264 111.041 26.5671C110.438 26.9492 109.73 27.1333 109.017 27.0939ZM109.42 25.4403C109.915 25.4554 110.403 25.3179 110.817 25.0464C111.196 24.7783 111.501 24.4171 111.701 23.9974C111.917 23.5439 112.051 23.0552 112.095 22.5546H109.804C109.2 22.5009 108.594 22.6491 108.082 22.976C107.922 23.1016 107.793 23.2624 107.705 23.4458C107.617 23.6293 107.572 23.8305 107.574 24.0341C107.571 24.2358 107.617 24.4352 107.709 24.6148C107.801 24.7945 107.935 24.9489 108.101 25.0647C108.489 25.3317 108.954 25.4636 109.424 25.4403H109.42Z" fill="#14181A"/>
<path d="M116.542 26.865V13.0134H118.581V21.2584L122.245 17.3145H124.691L120.628 21.6431L125.278 26.865H122.699L118.576 21.9775V26.865H116.542Z" fill="#14181A"/>
<path d="M130.586 27.0939C129.715 27.1088 128.856 26.894 128.095 26.471C127.377 26.0613 126.787 25.4603 126.391 24.7349C125.968 23.9356 125.757 23.0416 125.777 22.1378C125.756 21.2232 125.964 20.3179 126.381 19.504C126.769 18.7673 127.357 18.1546 128.076 17.7359C128.846 17.2988 129.72 17.0788 130.605 17.0992C131.462 17.0799 132.307 17.2953 133.051 17.7222C133.726 18.1231 134.284 18.695 134.668 19.3803C135.055 20.0811 135.253 20.8701 135.245 21.6706C135.245 21.7988 135.245 21.9362 135.245 22.0828C135.245 22.2294 135.245 22.3943 135.217 22.5729H127.797C127.801 22.9676 127.884 23.3575 128.041 23.7195C128.198 24.0814 128.427 24.4081 128.713 24.68C129.232 25.1503 129.909 25.4072 130.609 25.3991C131.122 25.4188 131.629 25.2813 132.061 25.0052C132.453 24.7446 132.757 24.3729 132.936 23.9379H134.975C134.72 24.8329 134.185 25.6227 133.449 26.1916C132.628 26.8136 131.616 27.1324 130.586 27.0939ZM130.586 18.7619C129.931 18.7531 129.293 18.968 128.777 19.3711C128.502 19.596 128.274 19.8742 128.109 20.189C127.944 20.5039 127.844 20.8489 127.815 21.2034H133.202C133.199 20.8696 133.128 20.54 132.992 20.2351C132.857 19.9301 132.66 19.6563 132.414 19.4307C131.909 18.9897 131.256 18.7571 130.586 18.7803V18.7619Z" fill="#14181A"/>
<path d="M137.356 26.8651V17.3193H139.189L139.363 19.1286C139.684 18.5143 140.167 17.9995 140.76 17.6399C141.415 17.2576 142.164 17.0672 142.922 17.0903V19.2385H142.363C141.847 19.2309 141.335 19.3259 140.856 19.5179C140.409 19.7067 140.036 20.0386 139.798 20.4615C139.505 21.0262 139.369 21.6588 139.404 22.2937V26.8743L137.356 26.8651Z" fill="#14181A"/>
<path d="M148.478 27.094C147.414 27.1373 146.365 26.8264 145.496 26.2099C145.119 25.9353 144.804 25.5839 144.572 25.179C144.339 24.774 144.196 24.3246 144.149 23.8601H146.206C146.316 24.3079 146.574 24.7052 146.939 24.9869C147.376 25.3136 147.915 25.4758 148.46 25.445C148.941 25.486 149.42 25.3491 149.806 25.0602C149.936 24.9519 150.041 24.8169 150.114 24.6643C150.187 24.5117 150.225 24.3452 150.228 24.1762C150.247 23.9699 150.201 23.7628 150.095 23.5843C149.99 23.4059 149.831 23.2651 149.641 23.1822C149.117 22.9742 148.572 22.8207 148.015 22.7241C147.47 22.6054 146.933 22.4524 146.408 22.2661C145.911 22.0941 145.459 21.8141 145.084 21.4462C144.903 21.2557 144.762 21.0304 144.671 20.784C144.579 20.5375 144.539 20.275 144.552 20.0125C144.546 19.6151 144.629 19.2214 144.795 18.8605C144.962 18.4997 145.208 18.181 145.514 17.9283C146.279 17.3284 147.238 17.0301 148.208 17.0901C149.133 17.048 150.045 17.3209 150.796 17.8642C151.128 18.1279 151.403 18.4571 151.603 18.8314C151.803 19.2056 151.924 19.617 151.959 20.04H149.999C149.974 19.8495 149.911 19.666 149.814 19.5006C149.716 19.3352 149.586 19.1915 149.431 19.078C149.06 18.8287 148.618 18.7066 148.171 18.7299C147.749 18.7045 147.33 18.8153 146.976 19.046C146.844 19.1382 146.737 19.261 146.664 19.4039C146.59 19.5467 146.553 19.7053 146.554 19.8659C146.562 20.0406 146.623 20.2089 146.727 20.3493C146.832 20.4896 146.975 20.5956 147.14 20.6537C147.636 20.8828 148.155 21.0564 148.689 21.1713C149.292 21.3024 149.886 21.4676 150.471 21.666C150.97 21.8233 151.422 22.1037 151.785 22.4814C152.149 22.9226 152.329 23.4867 152.289 24.0571C152.301 24.4735 152.216 24.8869 152.04 25.2646C151.864 25.6423 151.603 25.9738 151.277 26.2328C150.477 26.8448 149.484 27.1503 148.478 27.094Z" fill="#14181A"/>
<path d="M154.52 31.0974V17.3192H156.352L156.562 18.8032C156.902 18.3247 157.333 17.9183 157.831 17.6077C158.461 17.2398 159.182 17.0602 159.911 17.0901C160.758 17.0678 161.594 17.2851 162.324 17.717C163.053 18.1489 163.646 18.7779 164.033 19.5315C164.449 20.3266 164.659 21.2133 164.643 22.1104C164.66 23.0046 164.45 23.8886 164.033 24.6801C163.651 25.4101 163.076 26.0215 162.371 26.4482C161.627 26.889 160.775 27.1127 159.911 27.094C159.225 27.1044 158.548 26.9471 157.937 26.636C157.37 26.3563 156.894 25.9229 156.562 25.3855V31.0974H154.52ZM159.558 25.3259C159.961 25.3349 160.362 25.2578 160.733 25.0999C161.104 24.9419 161.438 24.7067 161.711 24.4098C161.999 24.0953 162.222 23.727 162.367 23.3262C162.513 22.9253 162.578 22.4997 162.558 22.0737C162.569 21.4933 162.437 20.9191 162.174 20.4019C161.93 19.921 161.555 19.5191 161.092 19.2427C160.629 18.9662 160.097 18.8266 159.558 18.8399C159.156 18.828 158.756 18.9038 158.385 19.062C158.015 19.2202 157.684 19.457 157.414 19.756C156.842 20.3928 156.542 21.2277 156.576 22.0829C156.538 22.9414 156.839 23.7804 157.414 24.419C157.684 24.7128 158.013 24.9456 158.379 25.102C158.746 25.2585 159.141 25.3348 159.54 25.3259H159.558Z" fill="#14181A"/>
<path d="M170.061 27.094C169.373 27.1199 168.688 26.9817 168.064 26.6909C167.577 26.4566 167.168 26.0858 166.887 25.6236C166.631 25.1826 166.499 24.6813 166.502 24.1716C166.489 23.7467 166.581 23.3252 166.77 22.9442C166.958 22.5632 167.238 22.2344 167.583 21.9867C168.298 21.4462 169.324 21.1759 170.661 21.1759H173.144V21.0065C173.167 20.6998 173.124 20.3918 173.019 20.1028C172.914 19.8138 172.749 19.5504 172.535 19.33C172.108 18.9557 171.554 18.759 170.986 18.7803C170.466 18.7695 169.954 18.9147 169.516 19.1972C169.309 19.3336 169.134 19.513 169.003 19.7233C168.872 19.9336 168.787 20.1697 168.756 20.4156H166.731C166.777 19.7653 167.022 19.1449 167.432 18.6383C167.844 18.1387 168.372 17.7485 168.971 17.5024C169.62 17.2353 170.317 17.1014 171.019 17.1084C172.149 17.0359 173.262 17.4129 174.115 18.1574C174.488 18.53 174.779 18.9771 174.969 19.4695C175.158 19.962 175.242 20.4887 175.214 21.0156V26.865H173.442L173.272 25.2297C172.992 25.7672 172.583 26.2268 172.081 26.5672C171.479 26.9484 170.773 27.1325 170.061 27.094ZM170.469 25.4404C170.956 25.4517 171.436 25.3143 171.843 25.0465C172.224 24.7798 172.529 24.4182 172.727 23.9976C172.944 23.544 173.077 23.0553 173.121 22.5547H170.854C170.249 22.501 169.643 22.6492 169.131 22.9761C168.971 23.1017 168.842 23.2625 168.754 23.4459C168.666 23.6294 168.621 23.8307 168.623 24.0342C168.615 24.2329 168.655 24.4306 168.74 24.6102C168.826 24.7898 168.954 24.9458 169.113 25.0648C169.509 25.34 169.987 25.4724 170.469 25.4404Z" fill="#14181A"/>
<path d="M182.103 27.094C181.225 27.1093 180.358 26.8895 179.593 26.4573C178.864 26.0437 178.264 25.4345 177.862 24.6984C177.433 23.8978 177.219 23 177.239 22.0921C177.219 21.1842 177.433 20.2864 177.862 19.4858C178.264 18.7496 178.864 18.1404 179.593 17.7268C180.358 17.2947 181.225 17.0748 182.103 17.0901C183.169 17.0507 184.217 17.3736 185.076 18.0063C185.88 18.6229 186.431 19.5125 186.624 20.5072H184.49C184.379 20.0019 184.075 19.5598 183.642 19.2751C183.208 18.9969 182.706 18.8433 182.191 18.8312C181.675 18.8191 181.167 18.9489 180.72 19.2064C180.284 19.4709 179.931 19.8516 179.699 20.3057C179.425 20.8572 179.293 21.4678 179.314 22.0829C179.294 22.6994 179.427 23.3112 179.699 23.8648C179.934 24.3178 180.287 24.6992 180.72 24.9687C181.134 25.2218 181.609 25.355 182.094 25.3534C182.642 25.3631 183.18 25.2032 183.633 24.8954C184.069 24.6059 184.373 24.1568 184.481 23.6449H186.615C186.422 24.6325 185.875 25.5156 185.076 26.1275C184.224 26.7788 183.175 27.1198 182.103 27.094Z" fill="#14181A"/>
<path d="M193.298 27.0939C192.427 27.1095 191.568 26.8946 190.807 26.471C190.09 26.0606 189.502 25.4597 189.107 24.7349C188.685 23.9356 188.473 23.0416 188.493 22.1378C188.473 21.2232 188.68 20.3179 189.098 19.504C189.484 18.7663 190.072 18.1533 190.793 17.7359C191.562 17.2988 192.436 17.0788 193.321 17.0992C194.177 17.0801 195.021 17.2955 195.763 17.7222C196.44 18.1247 196.998 18.7002 197.38 19.3895C197.766 20.0903 197.965 20.8793 197.957 21.6797C197.957 21.808 197.957 21.9454 197.957 22.092C197.957 22.2386 197.957 22.4035 197.929 22.5821H190.495C190.499 22.9768 190.582 23.3667 190.739 23.7286C190.897 24.0906 191.125 24.4172 191.411 24.6891C191.929 25.154 192.603 25.4074 193.298 25.3991C193.811 25.4188 194.318 25.2813 194.75 25.0052C195.141 24.7432 195.445 24.3719 195.625 23.9379H197.664C197.409 24.8341 196.873 25.6243 196.134 26.1916C195.32 26.8093 194.319 27.1279 193.298 27.0939ZM193.298 18.7803C192.643 18.7707 192.005 18.9857 191.489 19.3895C191.213 19.6143 190.986 19.8925 190.821 20.2073C190.656 20.5222 190.556 20.8672 190.527 21.2217H195.914C195.916 20.8829 195.848 20.5474 195.713 20.2366C195.578 19.9258 195.38 19.6466 195.131 19.417C194.622 18.981 193.968 18.7535 193.298 18.7803Z" fill="#14181A"/>
<path d="M89.2837 47.0193V33.5525H90.9006V47.0193H89.2837Z" fill="#14181A"/>
<path d="M93.6489 47.0193V37.4734H95.1101L95.2063 39.1866C95.5049 38.5953 95.9657 38.1012 96.5347 37.762C97.1245 37.4159 97.7975 37.2369 98.4814 37.2444C98.9793 37.2205 99.4767 37.2997 99.9426 37.477C100.408 37.6544 100.833 37.9261 101.188 38.275C101.86 38.9621 102.196 40.0172 102.196 41.4402V47.0193H100.579V41.6096C100.579 39.6217 99.7594 38.6277 98.1195 38.6277C97.7313 38.6209 97.3462 38.6994 96.9917 38.8577C96.6371 39.016 96.3216 39.2502 96.0674 39.5438C95.4948 40.257 95.2118 41.1598 95.275 42.0723V47.0193H93.6489Z" fill="#14181A"/>
<path d="M104.651 47.0191V37.4733H106.117L106.213 39.1864C106.51 38.5955 106.969 38.1013 107.537 37.7619C108.132 37.4127 108.812 37.2337 109.502 37.2443C109.999 37.2207 110.496 37.3001 110.961 37.4775C111.426 37.6548 111.849 37.9263 112.205 38.2749C112.88 38.962 113.215 40.017 113.212 41.4401V47.0191H111.6V41.6095C111.6 39.6216 110.776 38.6276 109.136 38.6276C108.748 38.6211 108.364 38.6998 108.01 38.8581C107.656 39.0164 107.342 39.2505 107.088 39.5437C106.506 40.2529 106.213 41.1561 106.268 42.0722V47.0191H104.651Z" fill="#14181A"/>
<path d="M120.01 47.2483C119.162 47.2602 118.326 47.0485 117.587 46.6345C116.869 46.2217 116.281 45.6175 115.887 44.8894C115.475 44.0686 115.26 43.1627 115.26 42.2441C115.26 41.3255 115.475 40.4196 115.887 39.5988C116.293 38.8731 116.888 38.2714 117.61 37.8582C118.356 37.4553 119.191 37.2444 120.04 37.2444C120.888 37.2444 121.723 37.4553 122.47 37.8582C123.185 38.2714 123.773 38.8736 124.169 39.5988C124.602 40.413 124.818 41.3247 124.797 42.2464C124.82 43.168 124.6 44.0796 124.16 44.8894C123.758 45.6191 123.162 46.2231 122.438 46.6345C121.696 47.0473 120.859 47.2589 120.01 47.2483ZM120.01 45.8742C120.55 45.876 121.081 45.7354 121.549 45.4665C122.04 45.1807 122.441 44.7614 122.703 44.2572C123.021 43.639 123.179 42.9506 123.161 42.2556C123.184 41.5626 123.034 40.875 122.726 40.2539C122.47 39.7484 122.072 39.3283 121.581 39.0446C121.119 38.7764 120.594 38.6357 120.06 38.6369C119.52 38.6351 118.989 38.7757 118.521 39.0446C118.031 39.3318 117.631 39.7507 117.367 40.2539C117.077 40.8814 116.927 41.5644 116.927 42.2556C116.927 42.9467 117.077 43.6297 117.367 44.2572C117.629 44.7589 118.025 45.1776 118.512 45.4665C118.967 45.7297 119.484 45.8672 120.01 45.865V45.8742Z" fill="#14181A"/>
<path d="M129.317 47.0192L125.699 37.4734H127.394L130.261 45.4573L133.147 37.4734H134.8L131.182 47.0192H129.317Z" fill="#14181A"/>
<path d="M139.28 47.2482C138.598 47.2725 137.92 47.1343 137.301 46.8452C136.813 46.6099 136.405 46.2354 136.129 45.7687C135.871 45.3236 135.738 44.8172 135.744 44.303C135.724 43.8646 135.816 43.4284 136.011 43.0351C136.205 42.6418 136.496 42.3042 136.857 42.0539C137.765 41.4831 138.827 41.2078 139.898 41.2661H142.477V41.1516C142.502 40.8076 142.456 40.4623 142.344 40.1364C142.231 39.8105 142.054 39.5108 141.822 39.2552C141.589 39.0354 141.314 38.8649 141.013 38.7539C140.712 38.6429 140.392 38.5938 140.072 38.6094C139.496 38.5909 138.928 38.7509 138.446 39.0674C138.218 39.2268 138.025 39.4307 137.877 39.6669C137.73 39.903 137.632 40.1666 137.59 40.4416H135.936C135.981 39.7993 136.226 39.1873 136.637 38.6918C137.046 38.2135 137.565 37.8411 138.149 37.6062C138.758 37.3531 139.412 37.2254 140.072 37.2306C141.404 37.2306 142.407 37.5864 143.082 38.2979C143.779 39.0746 144.141 40.0953 144.09 41.1378V47.0055H142.647L142.55 45.2924C142.274 45.8399 141.869 46.3117 141.369 46.6665C140.753 47.0796 140.021 47.2836 139.28 47.2482ZM139.532 45.8741C140.096 45.8957 140.651 45.7351 141.117 45.416C141.56 45.0975 141.91 44.6656 142.129 44.1655C142.358 43.6573 142.477 43.1062 142.477 42.5486H140.031C139.083 42.5486 138.414 42.7089 138.02 43.0387C137.836 43.1786 137.686 43.3585 137.581 43.5647C137.476 43.771 137.42 43.9984 137.416 44.2297C137.408 44.4587 137.453 44.6863 137.549 44.8946C137.644 45.103 137.787 45.2862 137.965 45.4298C138.417 45.762 138.972 45.9227 139.532 45.8832V45.8741Z" fill="#14181A"/>
<path d="M150.017 47.0194C149.277 47.0608 148.547 46.8348 147.96 46.3827C147.456 45.9613 147.209 45.1963 147.209 44.0924V38.8431H145.555V37.469H147.209L147.42 35.1787H148.826V37.469H151.615V38.8431H148.808V44.0924C148.78 44.3102 148.798 44.5313 148.86 44.7418C148.923 44.9523 149.028 45.1476 149.169 45.3154C149.551 45.5649 150.007 45.6764 150.461 45.6315H151.46V47.0056L150.017 47.0194Z" fill="#14181A"/>
<path d="M154.671 35.3572C154.523 35.3616 154.377 35.3358 154.24 35.2815C154.102 35.2271 153.978 35.1453 153.874 35.041C153.769 34.9368 153.688 34.8123 153.633 34.6752C153.579 34.5382 153.553 34.3915 153.558 34.2441C153.554 34.1009 153.58 33.9585 153.635 33.826C153.689 33.6935 153.77 33.5738 153.874 33.4746C153.979 33.3724 154.104 33.2925 154.241 33.2398C154.378 33.1871 154.524 33.1625 154.671 33.1677C154.816 33.1642 154.962 33.1895 155.097 33.2422C155.233 33.2948 155.358 33.3738 155.463 33.4746C155.568 33.5728 155.652 33.6921 155.708 33.8247C155.764 33.9573 155.791 34.1002 155.788 34.2441C155.792 34.3922 155.765 34.5395 155.709 34.6767C155.653 34.8138 155.569 34.9379 155.463 35.0411C155.359 35.1439 155.235 35.2248 155.099 35.2791C154.963 35.3334 154.817 35.3599 154.671 35.3572ZM153.865 47.0192V37.4734H155.481V47.0192H153.865Z" fill="#14181A"/>
<path d="M162.636 47.2483C161.789 47.2602 160.953 47.0485 160.213 46.6345C159.494 46.2224 158.904 45.6181 158.509 44.8894C158.097 44.0686 157.882 43.1627 157.882 42.2441C157.882 41.3255 158.097 40.4196 158.509 39.5988C158.915 38.8731 159.51 38.2714 160.231 37.8582C160.978 37.4553 161.813 37.2444 162.661 37.2444C163.51 37.2444 164.345 37.4553 165.091 37.8582C165.808 38.2702 166.396 38.8727 166.791 39.5988C167.223 40.413 167.44 41.3247 167.418 42.2464C167.445 43.1672 167.228 44.0787 166.791 44.8894C166.39 45.6201 165.794 46.2245 165.069 46.6345C164.325 47.0481 163.487 47.2597 162.636 47.2483ZM162.636 45.8742C163.176 45.8771 163.708 45.7364 164.175 45.4665C164.668 45.1819 165.068 44.7623 165.33 44.2572C165.648 43.639 165.805 42.9506 165.788 42.2556C165.803 41.5607 165.646 40.8729 165.33 40.2539C165.073 39.7484 164.675 39.3283 164.184 39.0446C163.724 38.777 163.201 38.6363 162.668 38.6369C162.128 38.634 161.597 38.7747 161.129 39.0446C160.637 39.3292 160.236 39.7488 159.975 40.2539C159.682 40.8806 159.531 41.5639 159.531 42.2556C159.531 42.9472 159.682 43.6305 159.975 44.2572C160.224 44.7458 160.604 45.1555 161.072 45.441C161.54 45.7265 162.079 45.8764 162.627 45.8742H162.636Z" fill="#14181A"/>
<path d="M169.677 47.0191V37.4733H171.138L171.234 39.1864C171.534 38.5962 171.995 38.1024 172.563 37.7619C173.155 37.4144 173.831 37.2354 174.518 37.2443C175.016 37.2207 175.512 37.3001 175.977 37.4775C176.442 37.6548 176.866 37.9263 177.221 38.2749C177.893 38.962 178.229 40.017 178.229 41.4401V47.0191H176.625V41.6095C176.625 39.6216 175.801 38.6276 174.161 38.6276C173.774 38.6211 173.389 38.6998 173.036 38.8581C172.682 39.0164 172.367 39.2505 172.114 39.5437C171.538 40.2556 171.251 41.1585 171.312 42.0722V47.0191H169.677Z" fill="#14181A"/>
<path d="M191.782 47.2483C190.584 47.2794 189.401 46.9765 188.365 46.3734C187.407 45.7863 186.636 44.9377 186.143 43.9274C185.624 42.7861 185.355 41.5467 185.355 40.2928C185.355 39.0388 185.624 37.7995 186.143 36.6581C186.64 35.6479 187.409 34.7972 188.365 34.203C189.399 33.5944 190.583 33.2882 191.782 33.3189C193.124 33.2594 194.448 33.6495 195.543 34.4274C196.536 35.1822 197.207 36.2853 197.421 37.5147H195.634C195.453 36.7217 195.009 36.0132 194.375 35.5038C193.631 34.9627 192.723 34.6942 191.805 34.7435C190.919 34.7225 190.046 34.9528 189.286 35.4076C188.555 35.8638 187.976 36.5271 187.623 37.3131C187.231 38.2569 187.029 39.2686 187.029 40.2905C187.029 41.3123 187.231 42.3241 187.623 43.2678C187.975 44.0547 188.554 44.7183 189.286 45.1733C190.046 45.6282 190.919 45.8585 191.805 45.8375C192.721 45.8858 193.626 45.6244 194.375 45.0955C195.008 44.603 195.453 43.9075 195.634 43.1258H197.421C197.207 44.3369 196.545 45.423 195.566 46.1673C194.459 46.9365 193.128 47.3168 191.782 47.2483Z" fill="#14181A"/>
<path d="M203.921 47.2482C203.071 47.2627 202.234 47.0474 201.497 46.6253C200.793 46.2113 200.218 45.6104 199.835 44.8893C199.411 44.0773 199.202 43.1709 199.225 42.2555C199.205 41.3444 199.411 40.4424 199.826 39.6308C200.202 38.8999 200.779 38.2913 201.488 37.8765C202.241 37.4519 203.093 37.2367 203.957 37.2535C204.798 37.2331 205.628 37.4489 206.353 37.8765C207.009 38.2772 207.545 38.8467 207.906 39.5255C208.262 40.2001 208.446 40.9522 208.441 41.715C208.441 41.857 208.441 41.999 208.441 42.141C208.441 42.283 208.441 42.4433 208.441 42.599H200.824C200.832 43.2434 201.008 43.8747 201.333 44.4312C201.602 44.8762 201.982 45.2439 202.435 45.4984C202.889 45.7529 203.4 45.8855 203.921 45.8832C204.513 45.9047 205.098 45.7449 205.597 45.4252C206.046 45.1172 206.389 44.6792 206.582 44.1701H208.176C207.924 45.0909 207.366 45.8981 206.593 46.4579C205.82 47.0178 204.878 47.2966 203.925 47.2482H203.921ZM203.921 38.6094C203.177 38.5999 202.453 38.8493 201.873 39.3148C201.568 39.5655 201.319 39.8771 201.142 40.2297C200.964 40.5823 200.862 40.968 200.842 41.3623H206.847C206.847 40.9824 206.768 40.6068 206.615 40.2591C206.462 39.9115 206.239 39.5993 205.959 39.3423C205.397 38.8479 204.668 38.5859 203.921 38.6094Z" fill="#14181A"/>
<path d="M210.576 47.0191V37.4733H212.037L212.134 39.1864C212.434 38.5962 212.894 38.1024 213.462 37.7619C214.057 37.4127 214.737 37.2337 215.427 37.2443C215.924 37.2207 216.421 37.3001 216.886 37.4775C217.351 37.6548 217.774 37.9263 218.129 38.2749C218.804 38.962 219.14 40.017 219.137 41.4401V47.0191H217.52V41.6095C217.52 39.6216 216.7 38.6276 215.061 38.6276C214.673 38.6208 214.289 38.6994 213.935 38.8577C213.581 39.016 213.266 39.2502 213.013 39.5437C212.426 40.2576 212.133 41.1682 212.193 42.0905V47.0375L210.576 47.0191Z" fill="#14181A"/>
<path d="M225.362 47.0194C224.621 47.0603 223.89 46.8344 223.301 46.3827C222.8 45.9613 222.551 45.1979 222.554 44.0924V38.8431H220.896V37.469H222.554L222.765 35.1787H224.167V37.469H226.979V38.8431H224.167V44.0924C224.14 44.3105 224.158 44.5318 224.222 44.7423C224.285 44.9528 224.391 45.148 224.533 45.3154C224.915 45.5649 225.371 45.6764 225.825 45.6315H226.823V47.0056L225.362 47.0194Z" fill="#14181A"/>
<path d="M233.048 47.2482C232.199 47.2627 231.362 47.0474 230.625 46.6253C229.921 46.2101 229.344 45.6096 228.958 44.8893C228.538 44.0761 228.33 43.1703 228.353 42.2555C228.334 41.345 228.538 40.4437 228.949 39.6308C229.328 38.9006 229.906 38.2924 230.616 37.8765C231.369 37.4519 232.221 37.2367 233.085 37.2535C233.926 37.2331 234.756 37.4489 235.481 37.8765C236.136 38.2761 236.671 38.8459 237.029 39.5255C237.389 40.1989 237.574 40.9515 237.569 41.715C237.569 41.857 237.569 41.999 237.569 42.141C237.569 42.283 237.569 42.4433 237.569 42.599H229.943C229.951 43.2434 230.126 43.8747 230.451 44.4312C230.726 44.8879 231.119 45.2626 231.587 45.5168C232.033 45.7582 232.532 45.8842 233.039 45.8832C233.63 45.9046 234.214 45.7448 234.711 45.4252C235.16 45.1203 235.502 44.6833 235.691 44.1747H237.29C237.038 45.0955 236.48 45.9027 235.707 46.4625C234.934 47.0223 233.992 47.3012 233.039 47.2528L233.048 47.2482ZM233.048 38.6094C232.305 38.5999 231.581 38.8493 231.001 39.3148C230.694 39.5642 230.444 39.8755 230.267 40.2284C230.089 40.5812 229.988 40.9676 229.97 41.3623H235.971C235.972 40.9825 235.895 40.6066 235.742 40.2587C235.59 39.9108 235.367 39.5986 235.087 39.3423C234.525 38.8487 233.796 38.5868 233.048 38.6094Z" fill="#14181A"/>
<path d="M239.704 47.0192V37.4734H241.165L241.302 39.3056C241.591 38.6828 242.06 38.161 242.649 37.8077C243.326 37.4164 244.098 37.2228 244.88 37.2489V38.9345H244.422C243.888 38.9275 243.358 39.0288 242.864 39.2323C242.385 39.4344 241.986 39.7885 241.728 40.24C241.418 40.8468 241.273 41.5244 241.307 42.205V47.0146L239.704 47.0192Z" fill="#14181A"/>
<path d="M252.387 47.7472V34.2804H256.812C257.706 34.2466 258.596 34.4239 259.409 34.798C260.043 35.1029 260.568 35.5934 260.916 36.2043C261.252 36.8157 261.422 37.504 261.411 38.2014C261.419 38.8929 261.252 39.5753 260.925 40.1847C260.581 40.7978 260.059 41.2915 259.427 41.6001C258.61 41.9811 257.713 42.1616 256.812 42.1269H254.004V47.7472H252.387ZM254.004 40.7619H256.752C257.833 40.7619 258.597 40.5344 259.043 40.0794C259.483 39.5502 259.725 38.8832 259.725 38.1945C259.725 37.5058 259.483 36.8388 259.043 36.3096C258.585 35.8516 257.824 35.6271 256.752 35.6271H254.004V40.7619Z" fill="#14181A"/>
<path d="M263.417 47.7474V38.2015H264.883L265.016 40.0338C265.305 39.411 265.774 38.8892 266.363 38.5359C267.039 38.1451 267.812 37.9515 268.593 37.9771V39.6627H268.135C267.6 39.6553 267.068 39.7566 266.573 39.9605C266.096 40.1628 265.698 40.517 265.442 40.9682C265.128 41.5737 264.981 42.252 265.016 42.9332V47.7428L263.417 47.7474Z" fill="#14181A"/>
<path d="M271.392 36.0853C271.245 36.0897 271.098 36.0639 270.961 36.0096C270.824 35.9552 270.699 35.8734 270.595 35.7691C270.491 35.6649 270.409 35.5404 270.354 35.4033C270.3 35.2663 270.274 35.1196 270.279 34.9722C270.275 34.829 270.301 34.6866 270.356 34.5541C270.41 34.4216 270.492 34.3019 270.595 34.2027C270.812 34.0053 271.094 33.896 271.387 33.896C271.68 33.896 271.963 34.0053 272.18 34.2027C272.286 34.3 272.371 34.419 272.428 34.5517C272.485 34.6845 272.513 34.8278 272.51 34.9722C272.514 35.1207 272.486 35.2685 272.43 35.4058C272.373 35.5431 272.288 35.667 272.18 35.7692C272.076 35.8719 271.953 35.9528 271.818 36.0071C271.683 36.0613 271.538 36.0879 271.392 36.0853ZM270.586 47.7473V38.2015H272.203V47.7473H270.586Z" fill="#14181A"/>
<path d="M274.355 47.7475V46.4191L279.664 39.5483H274.452V38.2017H281.474V39.53L276.165 46.4008H281.57V47.7475H274.355Z" fill="#14181A"/>
<path d="M283.704 47.7475V38.2016H285.166L285.303 40.0338C285.592 39.4111 286.061 38.8893 286.65 38.536C287.326 38.1447 288.099 37.9511 288.88 37.9772V39.6628H288.422C287.888 39.6557 287.359 39.757 286.865 39.9605C286.387 40.1638 285.988 40.5176 285.729 40.9683C285.419 41.575 285.273 42.2527 285.308 42.9333V47.7429L283.704 47.7475Z" fill="#14181A"/>
<path d="M294.615 47.9763C293.764 47.9915 292.925 47.7746 292.188 47.3487C291.482 46.9352 290.906 46.3323 290.525 45.6081C290.105 44.795 289.897 43.8891 289.92 42.9743C289.898 42.0636 290.103 41.1617 290.516 40.3497C290.893 39.621 291.47 39.0143 292.178 38.5999C292.932 38.1723 293.786 37.9555 294.652 37.9724C295.494 37.951 296.324 38.1686 297.048 38.5999C297.704 38.9964 298.239 39.5651 298.596 40.2443C298.953 40.9186 299.139 41.6706 299.136 42.4338C299.136 42.5773 299.136 42.7193 299.136 42.8598C299.136 43.0018 299.136 43.1621 299.136 43.3408H291.514C291.526 43.9853 291.703 44.616 292.027 45.173C292.301 45.6293 292.691 46.0041 293.159 46.2586C293.606 46.4995 294.107 46.6254 294.615 46.625C295.206 46.6464 295.79 46.4866 296.287 46.1669C296.735 45.8607 297.077 45.4241 297.267 44.9165H298.866C298.614 45.8372 298.056 46.6444 297.283 47.2043C296.51 47.7641 295.569 48.0429 294.615 47.9946V47.9763ZM294.615 39.3374C293.871 39.3282 293.146 39.5757 292.563 40.0382C292.259 40.2899 292.01 40.6024 291.833 40.9558C291.657 41.3092 291.556 41.6956 291.537 42.0903H297.538C297.539 41.7105 297.462 41.3346 297.309 40.9867C297.157 40.6388 296.934 40.3266 296.654 40.0703C296.091 39.5775 295.363 39.3157 294.615 39.3374Z" fill="#14181A"/>
<path d="M301.271 47.7473V38.2015H302.732L302.828 39.9146C303.127 39.3234 303.587 38.8293 304.156 38.4901C304.75 38.1415 305.428 37.9625 306.117 37.9725C306.614 37.9484 307.111 38.0275 307.576 38.2049C308.041 38.3823 308.465 38.654 308.819 39.0031C309.491 39.6902 309.829 40.7452 309.832 42.1683V47.7473H308.215V42.3377C308.215 40.3498 307.393 39.3558 305.751 39.3558C305.363 39.3493 304.979 39.428 304.625 39.5863C304.271 39.7446 303.956 39.9787 303.703 40.2719C303.118 40.9865 302.826 41.897 302.888 42.8187V47.7657L301.271 47.7473Z" fill="#14181A"/>
</svg>
