<svg width="207" height="57" viewBox="0 0 207 57" fill="none" xmlns="http://www.w3.org/2000/svg">
<g clip-path="url(#clip0_264_993)">
<path d="M75.2661 22.6621V11.302H77.2792L81.1432 18.8638L84.9724 11.302H87.001V22.6621H85.2777V14.2695L81.8001 21.0392H80.467L76.9894 14.285V22.6621H75.2661Z" fill="black"/>
<path d="M91.9623 22.8554C91.3805 22.8773 90.8018 22.7607 90.2738 22.5153C89.8637 22.3176 89.52 22.0048 89.2846 21.615C89.0691 21.243 88.9571 20.8201 88.96 20.3902C88.9489 20.0317 89.0263 19.676 89.1854 19.3545C89.3444 19.033 89.5802 18.7557 89.8719 18.547C90.6408 18.0445 91.5518 17.8045 92.4685 17.8631H94.5782V17.7201C94.5981 17.4618 94.5629 17.2021 94.475 16.9583C94.3871 16.7145 94.2484 16.4922 94.0682 16.3059C93.7006 15.9846 93.2228 15.8184 92.7351 15.8423C92.2959 15.8331 91.8639 15.9556 91.4948 16.1939C91.3207 16.3095 91.1734 16.4611 91.0628 16.6383C90.9522 16.8156 90.8808 17.0145 90.8534 17.2217H89.1416C89.1818 16.6735 89.388 16.1505 89.7328 15.7225C90.0817 15.3027 90.5272 14.9739 91.0311 14.7642C91.5801 14.5387 92.1687 14.4257 92.7622 14.4319C93.7154 14.3711 94.6542 14.6891 95.3742 15.3168C95.688 15.6319 95.9323 16.0092 96.0913 16.4245C96.2504 16.8398 96.3207 17.2838 96.2977 17.7279V22.6622H94.8062L94.6671 21.2827C94.4337 21.7358 94.0911 22.1236 93.6702 22.411C93.1611 22.7333 92.564 22.8887 91.9623 22.8554ZM92.3024 21.4605C92.72 21.4732 93.1314 21.3572 93.4809 21.1282C93.8012 20.902 94.058 20.5973 94.2266 20.2433C94.4093 19.8608 94.5219 19.4485 94.5589 19.0262H92.6269C92.1167 18.9809 91.6058 19.1059 91.1741 19.3817C91.039 19.4876 90.93 19.6232 90.8557 19.778C90.7813 19.9328 90.7435 20.1025 90.7452 20.2742C90.7427 20.4444 90.7819 20.6126 90.8594 20.7641C90.9368 20.9157 91.0502 21.0459 91.1895 21.1436C91.517 21.3688 91.9093 21.4802 92.3062 21.4605H92.3024Z" fill="black"/>
<path d="M98.311 22.6622V10.9775H100.031V17.9327L103.122 14.6058H105.185L101.758 18.2573L105.68 22.6622H103.504L100.027 18.5393V22.6622H98.311Z" fill="black"/>
<path d="M110.158 22.8554C109.423 22.868 108.698 22.6867 108.056 22.3299C107.45 21.9843 106.953 21.4773 106.619 20.8654C106.262 20.1911 106.084 19.437 106.101 18.6746C106.083 17.9031 106.259 17.1394 106.611 16.4528C106.938 15.8314 107.434 15.3145 108.041 14.9613C108.69 14.5926 109.427 14.407 110.173 14.4242C110.896 14.4079 111.61 14.5896 112.237 14.9497C112.807 15.2879 113.277 15.7704 113.601 16.3485C113.927 16.9396 114.095 17.6052 114.088 18.2804C114.088 18.3886 114.088 18.5045 114.088 18.6282C114.088 18.7518 114.088 18.8909 114.064 19.0416H107.805C107.808 19.3746 107.878 19.7035 108.011 20.0088C108.144 20.3142 108.336 20.5897 108.578 20.8191C109.015 21.2158 109.587 21.4325 110.177 21.4257C110.61 21.4423 111.037 21.3263 111.402 21.0934C111.732 20.8736 111.989 20.5601 112.14 20.1931H113.86C113.645 20.9481 113.194 21.6143 112.573 22.0942C111.88 22.6189 111.027 22.8879 110.158 22.8554ZM110.158 15.8268C109.606 15.8194 109.067 16.0007 108.632 16.3407C108.399 16.5304 108.208 16.765 108.068 17.0306C107.929 17.2962 107.844 17.5873 107.82 17.8863H112.364C112.362 17.6048 112.302 17.3268 112.188 17.0695C112.073 16.8123 111.907 16.5813 111.7 16.391C111.274 16.0189 110.723 15.8227 110.158 15.8423V15.8268Z" fill="black"/>
<path d="M115.869 22.6621V14.6096H117.415L117.562 16.1358C117.833 15.6176 118.24 15.1834 118.74 14.8801C119.293 14.5576 119.924 14.3969 120.564 14.4164V16.2286H120.092C119.657 16.2221 119.225 16.3023 118.821 16.4643C118.444 16.6235 118.13 16.9035 117.929 17.2603C117.682 17.7366 117.567 18.2702 117.596 18.8058V22.6698L115.869 22.6621Z" fill="black"/>
<path d="M125.251 22.8555C124.353 22.892 123.468 22.6298 122.735 22.1097C122.417 21.878 122.151 21.5816 121.955 21.24C121.759 20.8984 121.638 20.5193 121.599 20.1275H123.334C123.426 20.5053 123.644 20.8404 123.952 21.078C124.321 21.3536 124.775 21.4904 125.235 21.4644C125.641 21.4991 126.045 21.3836 126.371 21.1399C126.481 21.0485 126.569 20.9346 126.63 20.8059C126.692 20.6771 126.725 20.5367 126.727 20.3941C126.743 20.2201 126.704 20.0454 126.615 19.8948C126.526 19.7443 126.392 19.6256 126.232 19.5556C125.789 19.3802 125.33 19.2507 124.86 19.1692C124.401 19.069 123.948 18.94 123.504 18.7828C123.085 18.6378 122.704 18.4015 122.387 18.0912C122.235 17.9305 122.116 17.7405 122.039 17.5326C121.962 17.3246 121.928 17.1032 121.939 16.8818C121.934 16.5466 122.004 16.2144 122.144 15.91C122.285 15.6056 122.492 15.3368 122.751 15.1237C123.396 14.6175 124.204 14.3659 125.023 14.4165C125.803 14.381 126.573 14.6112 127.206 15.0696C127.486 15.292 127.718 15.5697 127.887 15.8854C128.056 16.2011 128.158 16.5481 128.187 16.9049H126.533C126.513 16.7443 126.46 16.5895 126.377 16.45C126.295 16.3105 126.185 16.1892 126.054 16.0935C125.741 15.8832 125.368 15.7802 124.992 15.7998C124.636 15.7784 124.282 15.8719 123.983 16.0665C123.872 16.1442 123.782 16.2478 123.72 16.3684C123.658 16.4889 123.626 16.6226 123.628 16.7581C123.635 16.9055 123.685 17.0475 123.774 17.1659C123.862 17.2843 123.983 17.3737 124.122 17.4227C124.54 17.6159 124.978 17.7624 125.428 17.8593C125.937 17.9699 126.439 18.1092 126.931 18.2767C127.353 18.4093 127.734 18.6458 128.04 18.9644C128.347 19.3367 128.499 19.8125 128.465 20.2936C128.476 20.6449 128.404 20.9937 128.255 21.3123C128.107 21.6309 127.887 21.9105 127.611 22.129C126.936 22.6453 126.099 22.903 125.251 22.8555Z" fill="black"/>
<path d="M130.347 26.2325V14.6097H131.893L132.07 15.8617C132.357 15.458 132.721 15.1152 133.141 14.8532C133.672 14.5428 134.281 14.3913 134.895 14.4165C135.61 14.3977 136.315 14.581 136.931 14.9453C137.546 15.3097 138.046 15.8402 138.373 16.476C138.723 17.1467 138.9 17.8947 138.887 18.6514C138.901 19.4058 138.724 20.1515 138.373 20.8191C138.05 21.435 137.565 21.9507 136.97 22.3106C136.343 22.6825 135.624 22.8712 134.895 22.8554C134.317 22.8642 133.745 22.7315 133.23 22.469C132.752 22.2331 132.35 21.8676 132.07 21.4142V26.2325H130.347ZM134.598 21.3639C134.938 21.3715 135.276 21.3065 135.589 21.1733C135.902 21.04 136.183 20.8416 136.414 20.5912C136.656 20.3258 136.845 20.0152 136.967 19.677C137.09 19.3389 137.145 18.9799 137.128 18.6205C137.138 18.1309 137.026 17.6465 136.804 17.2102C136.598 16.8046 136.282 16.4655 135.891 16.2323C135.501 15.9991 135.052 15.8813 134.598 15.8926C134.258 15.8826 133.921 15.9465 133.608 16.0799C133.296 16.2134 133.017 16.4131 132.789 16.6654C132.307 17.2025 132.053 17.9068 132.082 18.6283C132.05 19.3525 132.304 20.0602 132.789 20.5989C133.016 20.8467 133.294 21.0432 133.603 21.1751C133.912 21.307 134.246 21.3714 134.582 21.3639H134.598Z" fill="black"/>
<path d="M143.458 22.8552C142.877 22.8771 142.3 22.7605 141.773 22.5152C141.362 22.3175 141.017 22.0048 140.78 21.6149C140.565 21.2428 140.453 20.8199 140.456 20.39C140.445 20.0316 140.522 19.676 140.681 19.3546C140.84 19.0332 141.076 18.7558 141.367 18.5469C141.97 18.0909 142.836 17.863 143.964 17.863H146.058V17.72C146.078 17.4613 146.042 17.2015 145.953 16.9577C145.865 16.7139 145.725 16.4917 145.544 16.3058C145.184 15.99 144.717 15.8241 144.238 15.8421C143.799 15.833 143.367 15.9554 142.998 16.1937C142.823 16.3088 142.676 16.4602 142.565 16.6376C142.454 16.815 142.383 17.0142 142.357 17.2215H140.649C140.687 16.673 140.894 16.1496 141.24 15.7223C141.587 15.3009 142.033 14.9717 142.538 14.7641C143.086 14.5388 143.673 14.4258 144.265 14.4318C145.219 14.3706 146.158 14.6886 146.877 15.3166C147.193 15.631 147.438 16.0081 147.598 16.4235C147.757 16.8389 147.828 17.2833 147.805 17.7277V22.662H146.309L146.167 21.2826C145.93 21.736 145.585 22.1236 145.162 22.4109C144.654 22.7324 144.058 22.8877 143.458 22.8552ZM143.802 21.4603C144.213 21.4699 144.617 21.354 144.961 21.128C145.282 20.903 145.539 20.598 145.707 20.2432C145.889 19.8606 146.002 19.4484 146.039 19.026H144.126C143.616 18.9808 143.105 19.1058 142.673 19.3815C142.538 19.4875 142.429 19.6231 142.355 19.7778C142.281 19.9326 142.243 20.1024 142.245 20.2741C142.238 20.4417 142.272 20.6085 142.344 20.76C142.416 20.9115 142.524 21.0431 142.658 21.1435C142.992 21.3756 143.396 21.4873 143.802 21.4603Z" fill="black"/>
<path d="M153.616 22.8555C152.875 22.8684 152.144 22.6829 151.498 22.3184C150.883 21.9695 150.377 21.4556 150.038 20.8346C149.676 20.1592 149.495 19.4019 149.512 18.636C149.495 17.8701 149.676 17.1128 150.038 16.4374C150.377 15.8164 150.883 15.3025 151.498 14.9536C152.144 14.5891 152.875 14.4036 153.616 14.4165C154.515 14.3832 155.399 14.6557 156.124 15.1893C156.802 15.7095 157.266 16.46 157.43 17.2991H155.629C155.535 16.8728 155.279 16.4999 154.914 16.2597C154.548 16.025 154.124 15.8955 153.69 15.8852C153.255 15.875 152.826 15.9845 152.449 16.2017C152.081 16.4249 151.783 16.746 151.587 17.1291C151.357 17.5943 151.245 18.1094 151.263 18.6283C151.246 19.1483 151.358 19.6644 151.587 20.1314C151.786 20.5136 152.083 20.8352 152.449 21.0626C152.798 21.2761 153.199 21.3885 153.608 21.3871C154.07 21.3954 154.524 21.2604 154.906 21.0008C155.274 20.7566 155.531 20.3777 155.621 19.9459H157.422C157.259 20.779 156.797 21.5239 156.124 22.0402C155.405 22.5896 154.52 22.8772 153.616 22.8555Z" fill="black"/>
<path d="M163.059 22.8554C162.325 22.8685 161.599 22.6872 160.957 22.3299C160.353 21.9837 159.857 21.4768 159.524 20.8654C159.168 20.1911 158.989 19.437 159.006 18.6746C158.989 17.9031 159.164 17.1394 159.516 16.4528C159.842 15.8305 160.338 15.3134 160.946 14.9613C161.595 14.5926 162.332 14.407 163.079 14.4242C163.8 14.408 164.513 14.5898 165.138 14.9497C165.71 15.2893 166.18 15.7747 166.502 16.3562C166.829 16.9473 166.996 17.6129 166.989 18.2882C166.989 18.3964 166.989 18.5123 166.989 18.6359C166.989 18.7596 166.989 18.8987 166.966 19.0494H160.695C160.698 19.3823 160.768 19.7112 160.901 20.0165C161.033 20.3219 161.226 20.5974 161.467 20.8268C161.904 21.2189 162.472 21.4327 163.059 21.4257C163.492 21.4423 163.919 21.3263 164.284 21.0934C164.613 20.8724 164.87 20.5592 165.022 20.1931H166.742C166.527 20.949 166.075 21.6157 165.451 22.0942C164.765 22.6153 163.92 22.8841 163.059 22.8554ZM163.059 15.8423C162.507 15.8342 161.968 16.0156 161.533 16.3562C161.301 16.5458 161.109 16.7805 160.97 17.0461C160.83 17.3117 160.746 17.6028 160.722 17.9018H165.266C165.268 17.616 165.21 17.3329 165.096 17.0708C164.982 16.8086 164.815 16.5731 164.605 16.3794C164.176 16.0116 163.624 15.8197 163.059 15.8423Z" fill="black"/>
<path d="M75.3164 39.6635V28.3035H76.6804V39.6635H75.3164Z" fill="black"/>
<path d="M78.999 39.6635V31.611H80.2316L80.3128 33.0562C80.5647 32.5574 80.9533 32.1406 81.4333 31.8545C81.9309 31.5625 82.4986 31.4115 83.0755 31.4178C83.4955 31.3976 83.9151 31.4645 84.3081 31.6141C84.7011 31.7637 85.0589 31.9928 85.3591 32.2872C85.9258 32.8668 86.2092 33.7568 86.2092 34.9572V39.6635H84.8452V35.1002C84.8452 33.4232 84.1536 32.5847 82.7703 32.5847C82.4427 32.579 82.1179 32.6452 81.8188 32.7787C81.5197 32.9123 81.2536 33.1099 81.0392 33.3575C80.5561 33.9592 80.3174 34.7207 80.3707 35.4904V39.6635H78.999Z" fill="black"/>
<path d="M88.2803 39.6637V31.6112H89.5167L89.5979 33.0563C89.8484 32.5578 90.2358 32.141 90.7146 31.8546C91.2167 31.5601 91.7901 31.409 92.3722 31.418C92.7916 31.3981 93.2106 31.4651 93.6029 31.6147C93.9951 31.7643 94.3523 31.9933 94.652 32.2874C95.2213 32.867 95.5046 33.757 95.502 34.9574V39.6637H94.1419V35.1003C94.1419 33.4234 93.4464 32.5849 92.0631 32.5849C91.7362 32.5794 91.4121 32.6458 91.1136 32.7793C90.8152 32.9129 90.5497 33.1103 90.3359 33.3577C89.8445 33.9559 89.5974 34.7178 89.6443 35.4906V39.6637H88.2803Z" fill="black"/>
<path d="M101.236 39.8567C100.521 39.8667 99.8162 39.6881 99.1922 39.3389C98.5871 38.9907 98.0907 38.4809 97.7587 37.8668C97.4107 37.1744 97.2295 36.4102 97.2295 35.6353C97.2295 34.8604 97.4107 34.0962 97.7587 33.4039C98.1008 32.7917 98.603 32.2841 99.2116 31.9356C99.8413 31.5957 100.546 31.4177 101.261 31.4177C101.977 31.4177 102.681 31.5957 103.311 31.9356C103.915 32.284 104.411 32.7921 104.745 33.4039C105.11 34.0906 105.292 34.8597 105.274 35.6372C105.294 36.4147 105.109 37.1836 104.737 37.8668C104.398 38.4823 103.895 38.9919 103.284 39.3389C102.658 39.6871 101.952 39.8656 101.236 39.8567ZM101.236 38.6975C101.692 38.6991 102.14 38.5805 102.535 38.3536C102.949 38.1125 103.287 37.7588 103.508 37.3335C103.777 36.812 103.91 36.2313 103.895 35.645C103.914 35.0604 103.787 34.4803 103.528 33.9564C103.311 33.53 102.976 33.1756 102.562 32.9363C102.172 32.7101 101.729 32.5914 101.279 32.5924C100.823 32.5909 100.375 32.7095 99.9805 32.9363C99.5669 33.1786 99.2295 33.532 99.0068 33.9564C98.7625 34.4858 98.636 35.0619 98.636 35.645C98.636 36.228 98.7625 36.8041 99.0068 37.3335C99.2278 37.7567 99.5623 38.1099 99.9728 38.3536C100.357 38.5756 100.793 38.6916 101.236 38.6898V38.6975Z" fill="black"/>
<path d="M109.088 39.6636L106.035 31.6111H107.465L109.884 38.346L112.318 31.6111H113.713L110.66 39.6636H109.088Z" fill="black"/>
<path d="M117.492 39.8569C116.917 39.8773 116.344 39.7608 115.823 39.5169C115.411 39.3184 115.067 39.0024 114.834 38.6088C114.616 38.2333 114.504 37.8062 114.509 37.3724C114.493 37.0025 114.57 36.6346 114.734 36.3028C114.898 35.9711 115.144 35.6863 115.448 35.4751C116.214 34.9936 117.11 34.7614 118.014 34.8105H120.189V34.7139C120.21 34.4238 120.171 34.1325 120.076 33.8576C119.981 33.5827 119.832 33.3298 119.637 33.1143C119.44 32.9288 119.208 32.785 118.954 32.6914C118.7 32.5977 118.43 32.5563 118.16 32.5694C117.674 32.5539 117.195 32.6888 116.789 32.9558C116.596 33.0903 116.433 33.2623 116.309 33.4615C116.185 33.6607 116.102 33.883 116.066 34.115H114.671C114.709 33.5732 114.916 33.0569 115.262 32.639C115.608 32.2355 116.045 31.9213 116.538 31.7232C117.052 31.5097 117.604 31.402 118.16 31.4064C119.284 31.4064 120.13 31.7065 120.699 32.3067C121.287 32.9619 121.593 33.8229 121.549 34.7023V39.6521H120.332L120.251 38.207C120.018 38.6689 119.676 39.0668 119.254 39.3662C118.735 39.7146 118.117 39.8867 117.492 39.8569ZM117.705 38.6977C118.18 38.7159 118.649 38.5804 119.041 38.3113C119.415 38.0426 119.71 37.6782 119.895 37.2564C120.089 36.8277 120.189 36.3628 120.189 35.8925H118.126C117.326 35.8925 116.762 36.0277 116.429 36.3059C116.274 36.4239 116.147 36.5756 116.059 36.7496C115.971 36.9236 115.923 37.1154 115.919 37.3105C115.913 37.5037 115.951 37.6957 116.032 37.8715C116.112 38.0472 116.232 38.2018 116.383 38.3229C116.764 38.6031 117.233 38.7387 117.705 38.7054V38.6977Z" fill="black"/>
<path d="M126.549 39.6637C125.925 39.6986 125.309 39.508 124.814 39.1266C124.389 38.7711 124.181 38.1258 124.181 37.1946V32.7665H122.786V31.6073H124.181L124.358 29.6753H125.545V31.6073H127.898V32.7665H125.529V37.1946C125.506 37.3783 125.521 37.5648 125.574 37.7424C125.626 37.9199 125.715 38.0847 125.834 38.2263C126.157 38.4367 126.541 38.5308 126.924 38.4929H127.766V39.6521L126.549 39.6637Z" fill="black"/>
<path d="M130.475 29.8261C130.35 29.8298 130.226 29.8081 130.111 29.7622C129.995 29.7164 129.89 29.6473 129.802 29.5594C129.714 29.4714 129.645 29.3664 129.599 29.2508C129.554 29.1352 129.532 29.0114 129.536 28.8871C129.532 28.7663 129.555 28.6462 129.6 28.5344C129.646 28.4227 129.715 28.3217 129.802 28.238C129.891 28.1518 129.996 28.0844 130.112 28.0399C130.227 27.9955 130.351 27.9748 130.475 27.9791C130.597 27.9761 130.72 27.9975 130.835 28.0419C130.949 28.0863 131.054 28.153 131.143 28.238C131.232 28.3209 131.302 28.4215 131.349 28.5333C131.396 28.6452 131.42 28.7657 131.417 28.8871C131.421 29.0121 131.398 29.1363 131.351 29.252C131.303 29.3677 131.233 29.4724 131.143 29.5594C131.055 29.6462 130.95 29.7144 130.836 29.7602C130.721 29.806 130.598 29.8284 130.475 29.8261ZM129.794 39.6637V31.6112H131.158V39.6637H129.794Z" fill="black"/>
<path d="M137.194 39.8567C136.479 39.8667 135.774 39.6881 135.15 39.3389C134.544 38.9912 134.046 38.4815 133.713 37.8668C133.365 37.1744 133.184 36.4102 133.184 35.6353C133.184 34.8604 133.365 34.0962 133.713 33.4039C134.055 32.7917 134.557 32.2841 135.166 31.9356C135.795 31.5957 136.5 31.4177 137.215 31.4177C137.931 31.4177 138.636 31.5957 139.265 31.9356C139.87 32.2831 140.366 32.7913 140.699 33.4039C141.064 34.0906 141.246 34.8597 141.228 35.6372C141.25 36.414 141.068 37.1829 140.699 37.8668C140.361 38.4832 139.858 38.993 139.246 39.3389C138.619 39.6877 137.912 39.8663 137.194 39.8567ZM137.194 38.6975C137.65 38.7 138.098 38.5813 138.493 38.3536C138.908 38.1136 139.246 37.7596 139.466 37.3335C139.735 36.812 139.868 36.2313 139.853 35.645C139.866 35.0588 139.733 34.4786 139.466 33.9564C139.25 33.53 138.914 33.1756 138.5 32.9363C138.112 32.7105 137.671 32.5919 137.221 32.5924C136.766 32.5899 136.318 32.7086 135.923 32.9363C135.508 33.1764 135.17 33.5304 134.949 33.9564C134.702 34.4851 134.575 35.0615 134.575 35.645C134.575 36.2284 134.702 36.8048 134.949 37.3335C135.159 37.7456 135.48 38.0913 135.875 38.3321C136.27 38.5729 136.724 38.6994 137.187 38.6975H137.194Z" fill="black"/>
<path d="M143.133 39.6637V31.6112H144.366L144.447 33.0563C144.7 32.5584 145.089 32.1419 145.568 31.8546C146.068 31.5614 146.638 31.4105 147.218 31.418C147.637 31.3981 148.056 31.4651 148.448 31.6147C148.84 31.7643 149.198 31.9933 149.497 32.2874C150.064 32.867 150.347 33.757 150.347 34.9574V39.6637H148.995V35.1003C148.995 33.4234 148.299 32.5849 146.916 32.5849C146.589 32.5794 146.265 32.6458 145.967 32.7793C145.668 32.9129 145.403 33.1103 145.189 33.3577C144.703 33.9582 144.462 34.7199 144.513 35.4906V39.6637H143.133Z" fill="black"/>
<path d="M161.781 39.8569C160.77 39.8831 159.772 39.6276 158.898 39.1189C158.09 38.6236 157.44 37.9078 157.024 37.0555C156.586 36.0927 156.359 35.0472 156.359 33.9895C156.359 32.9317 156.586 31.8862 157.024 30.9234C157.443 30.0712 158.092 29.3536 158.898 28.8523C159.77 28.339 160.769 28.0806 161.781 28.1066C162.913 28.0564 164.029 28.3854 164.953 29.0416C165.791 29.6784 166.357 30.6089 166.537 31.646H165.03C164.877 30.9771 164.503 30.3794 163.968 29.9497C163.34 29.4932 162.575 29.2667 161.8 29.3083C161.053 29.2906 160.316 29.4848 159.675 29.8685C159.058 30.2533 158.57 30.8128 158.272 31.4759C157.942 32.272 157.771 33.1255 157.771 33.9875C157.771 34.8495 157.942 35.703 158.272 36.4991C158.569 37.1628 159.057 37.7226 159.675 38.1065C160.316 38.4902 161.053 38.6845 161.8 38.6668C162.572 38.7076 163.336 38.487 163.968 38.0408C164.502 37.6254 164.877 37.0387 165.03 36.3793H166.537C166.357 37.401 165.798 38.3171 164.972 38.945C164.039 39.5939 162.916 39.9146 161.781 39.8569Z" fill="black"/>
<path d="M172.02 39.8569C171.304 39.869 170.598 39.6875 169.976 39.3314C169.382 38.9822 168.897 38.4753 168.574 37.8669C168.216 37.182 168.039 36.4174 168.06 35.6451C168.042 34.8766 168.216 34.1157 168.566 33.4311C168.883 32.8145 169.37 32.3011 169.968 31.9512C170.603 31.593 171.322 31.4115 172.051 31.4257C172.761 31.4084 173.461 31.5905 174.072 31.9512C174.625 32.2892 175.078 32.7696 175.382 33.3422C175.682 33.9113 175.838 34.5457 175.834 35.1892C175.834 35.309 175.834 35.4288 175.834 35.5485C175.834 35.6683 175.834 35.8036 175.834 35.9349H169.408C169.415 36.4785 169.563 37.0111 169.837 37.4805C170.064 37.8559 170.385 38.1661 170.767 38.3808C171.15 38.5954 171.582 38.7073 172.02 38.7054C172.52 38.7235 173.013 38.5887 173.434 38.319C173.813 38.0592 174.103 37.6897 174.265 37.2603H175.61C175.398 38.037 174.926 38.7179 174.274 39.1902C173.622 39.6624 172.828 39.8977 172.024 39.8569H172.02ZM172.02 32.5694C171.393 32.5615 170.782 32.7718 170.293 33.1645C170.036 33.376 169.826 33.6389 169.676 33.9363C169.526 34.2337 169.44 34.5591 169.424 34.8917H174.489C174.489 34.5713 174.422 34.2544 174.293 33.9611C174.164 33.6678 173.976 33.4045 173.74 33.1877C173.266 32.7706 172.651 32.5496 172.02 32.5694Z" fill="black"/>
<path d="M177.634 39.6637V31.6112H178.867L178.948 33.0563C179.201 32.5584 179.59 32.1419 180.069 31.8546C180.571 31.5601 181.144 31.409 181.726 31.418C182.146 31.3981 182.565 31.4651 182.957 31.6147C183.349 31.7643 183.706 31.9933 184.006 32.2874C184.575 32.867 184.859 33.757 184.856 34.9574V39.6637H183.492V35.1003C183.492 33.4234 182.8 32.5849 181.417 32.5849C181.09 32.5792 180.766 32.6454 180.467 32.779C180.169 32.9125 179.904 33.1101 179.69 33.3577C179.195 33.9599 178.947 34.7281 178.998 35.5061V39.6791L177.634 39.6637Z" fill="black"/>
<path d="M190.107 39.6637C189.482 39.6982 188.865 39.5076 188.368 39.1266C187.946 38.7711 187.736 38.1271 187.739 37.1946V32.7665H186.34V31.6073H187.739L187.916 29.6753H189.099V31.6073H191.471V32.7665H189.099V37.1946C189.076 37.3786 189.092 37.5652 189.145 37.7428C189.198 37.9204 189.288 38.085 189.408 38.2263C189.73 38.4367 190.114 38.5308 190.497 38.4929H191.34V39.6521L190.107 39.6637Z" fill="black"/>
<path d="M196.591 39.8569C195.875 39.869 195.168 39.6875 194.547 39.3314C193.953 38.9811 193.466 38.4746 193.14 37.8669C192.786 37.181 192.611 36.4168 192.63 35.6451C192.614 34.8771 192.786 34.1168 193.133 33.4311C193.453 32.8151 193.94 32.3021 194.539 31.9512C195.174 31.593 195.893 31.4115 196.622 31.4257C197.331 31.4084 198.032 31.5905 198.643 31.9512C199.196 32.2882 199.647 32.769 199.949 33.3422C200.252 33.9103 200.409 34.5452 200.405 35.1892C200.405 35.309 200.405 35.4288 200.405 35.5485C200.405 35.6683 200.405 35.8036 200.405 35.9349H193.971C193.978 36.4785 194.126 37.0111 194.4 37.4805C194.632 37.8657 194.963 38.1819 195.358 38.3963C195.734 38.6 196.156 38.7062 196.583 38.7054C197.082 38.7234 197.574 38.5886 197.994 38.319C198.372 38.0618 198.661 37.6931 198.82 37.2641H200.169C199.957 38.0409 199.486 38.7218 198.833 39.194C198.181 39.6663 197.387 39.9015 196.583 39.8607L196.591 39.8569ZM196.591 32.5694C195.964 32.5615 195.353 32.7718 194.864 33.1645C194.605 33.3749 194.394 33.6375 194.244 33.9351C194.095 34.2328 194.009 34.5588 193.994 34.8917H199.056C199.058 34.5713 198.992 34.2542 198.864 33.9607C198.735 33.6673 198.547 33.4039 198.31 33.1877C197.836 32.7713 197.222 32.5504 196.591 32.5694Z" fill="black"/>
<path d="M202.206 39.6637V31.6112H203.438L203.554 33.1568C203.798 32.6315 204.194 32.1913 204.69 31.8933C205.261 31.5632 205.913 31.3999 206.572 31.4219V32.8438H206.185C205.735 32.8379 205.288 32.9233 204.872 33.095C204.468 33.2655 204.131 33.5642 203.913 33.9451C203.652 34.4569 203.529 35.0286 203.558 35.6027V39.6599L202.206 39.6637Z" fill="black"/>
<path d="M75.3164 56.665V45.3049H79.049C79.8034 45.2764 80.554 45.426 81.2399 45.7416C81.7742 45.9988 82.2176 46.4125 82.5111 46.9278C82.7943 47.4436 82.9381 48.0242 82.9284 48.6125C82.9355 49.1959 82.7946 49.7715 82.5188 50.2856C82.2288 50.8028 81.788 51.2192 81.2553 51.4796C80.5656 51.8009 79.8093 51.9532 79.049 51.9239H76.6804V56.665H75.3164ZM76.6804 50.7725H78.9988C79.9107 50.7725 80.5547 50.5806 80.9308 50.1967C81.3026 49.7503 81.5062 49.1877 81.5062 48.6067C81.5062 48.0257 81.3026 47.4631 80.9308 47.0167C80.5444 46.6303 79.9029 46.441 78.9988 46.441H76.6804V50.7725Z" fill="black"/>
<path d="M84.6211 56.6651V48.6126H85.8576L85.9696 50.1582C86.2133 49.6329 86.6091 49.1927 87.1056 48.8947C87.6766 48.565 88.3284 48.4017 88.9874 48.4233V49.8452H88.601C88.1493 49.8389 87.7011 49.9244 87.2834 50.0964C86.8804 50.2671 86.545 50.5659 86.329 50.9465C86.064 51.4573 85.94 52.0294 85.9696 52.6041V56.6613L84.6211 56.6651Z" fill="black"/>
<path d="M91.3481 46.8275C91.2237 46.8312 91.1 46.8095 90.9843 46.7636C90.8687 46.7178 90.7637 46.6488 90.6758 46.5608C90.5878 46.4729 90.5188 46.3679 90.4729 46.2522C90.4271 46.1366 90.4054 46.0129 90.4091 45.8885C90.406 45.7678 90.4281 45.6476 90.474 45.5359C90.5199 45.4241 90.5886 45.3231 90.6757 45.2394C90.8586 45.073 91.0969 44.9807 91.3442 44.9807C91.5914 44.9807 91.8298 45.073 92.0127 45.2394C92.1026 45.3215 92.174 45.4219 92.222 45.5339C92.27 45.6458 92.2935 45.7668 92.2909 45.8885C92.2943 46.0139 92.2713 46.1385 92.2234 46.2543C92.1754 46.3702 92.1036 46.4746 92.0127 46.5609C91.9253 46.6475 91.8215 46.7157 91.7074 46.7615C91.5932 46.8073 91.471 46.8298 91.3481 46.8275ZM90.668 56.6652V48.6126H92.032V56.6652H90.668Z" fill="black"/>
<path d="M93.8481 56.6651V55.5445L98.3265 49.7486H93.9293V48.6125H99.8528V49.7331L95.3744 55.5291H99.9339V56.6651H93.8481Z" fill="black"/>
<path d="M101.734 56.6652V48.6127H102.967L103.083 50.1583C103.327 49.6329 103.722 49.1928 104.219 48.8948C104.79 48.5647 105.442 48.4013 106.101 48.4234V49.8453H105.714C105.264 49.8393 104.817 49.9248 104.401 50.0964C103.997 50.2679 103.661 50.5664 103.442 50.9465C103.181 51.4584 103.058 52.03 103.087 52.6042V56.6613L101.734 56.6652Z" fill="black"/>
<path d="M110.939 56.8583C110.221 56.8712 109.513 56.6882 108.891 56.329C108.295 55.9802 107.809 55.4715 107.488 54.8607C107.134 54.1747 106.959 53.4106 106.978 52.6389C106.959 51.8706 107.132 51.1098 107.48 50.4248C107.799 49.8101 108.285 49.2984 108.883 48.9488C109.518 48.588 110.239 48.4052 110.97 48.4194C111.68 48.4014 112.38 48.585 112.99 48.9488C113.544 49.2833 113.996 49.763 114.296 50.336C114.598 50.9047 114.755 51.5391 114.752 52.1829C114.752 52.304 114.752 52.4238 114.752 52.5423C114.752 52.6621 114.752 52.7973 114.752 52.948H108.323C108.333 53.4917 108.482 54.0237 108.755 54.4936C108.986 54.8785 109.316 55.1947 109.71 55.4093C110.088 55.6126 110.51 55.7188 110.939 55.7185C111.437 55.7365 111.929 55.6017 112.349 55.3321C112.726 55.0738 113.015 54.7054 113.176 54.2772H114.524C114.312 55.0539 113.841 55.7348 113.189 56.2071C112.537 56.6793 111.743 56.9146 110.939 56.8738V56.8583ZM110.939 49.5709C110.311 49.5632 109.699 49.7719 109.208 50.1621C108.951 50.3744 108.741 50.638 108.592 50.9361C108.443 51.2343 108.358 51.5602 108.342 51.8931H113.404C113.405 51.5728 113.34 51.2557 113.211 50.9622C113.083 50.6687 112.894 50.4054 112.658 50.1891C112.183 49.7735 111.569 49.5526 110.939 49.5709Z" fill="black"/>
<path d="M116.553 56.6651V48.6125H117.785L117.866 50.0577C118.118 49.5589 118.507 49.1421 118.987 48.856C119.488 48.5619 120.06 48.4109 120.641 48.4193C121.06 48.399 121.479 48.4657 121.872 48.6154C122.264 48.765 122.621 48.9943 122.921 49.2887C123.487 49.8683 123.772 50.7583 123.774 51.9587V56.6651H122.411V52.1017C122.411 50.4247 121.718 49.5863 120.332 49.5863C120.005 49.5808 119.681 49.6472 119.382 49.7807C119.084 49.9142 118.818 50.1117 118.605 50.3591C118.111 50.9619 117.865 51.7299 117.917 52.5074V56.6805L116.553 56.6651Z" fill="black"/>
<path d="M0.888713 22.7972H0V11.4487H0.888713C2.348 11.4512 3.78929 11.1266 5.10659 10.4987C6.42389 9.8708 7.5837 8.95563 8.50073 7.82048C10.481 5.37227 12.9848 3.39895 15.828 2.04556C18.6712 0.692173 21.7815 -0.00687305 24.9303 -0.000196766H25.819V11.3483H24.9303C23.4708 11.3453 22.0291 11.6693 20.7112 12.2965C19.3933 12.9237 18.2326 13.8382 17.3145 14.9727C15.3351 17.4213 12.8322 19.3952 9.98966 20.7493C7.14713 22.1033 4.03727 22.8031 0.888713 22.7972Z" fill="#FF5500"/>
<path d="M26.7076 22.7975H25.8188V11.449H26.7076C28.1674 11.4515 29.6093 11.1269 30.9272 10.499C32.2451 9.87114 33.4056 8.95597 34.3234 7.82072C36.303 5.3726 38.806 3.39929 41.6486 2.04588C44.4911 0.692474 47.6009 -0.00660443 50.7492 4.70224e-05H51.634V11.3485H50.7492C49.2896 11.3453 47.8478 11.6692 46.5299 12.2964C45.2119 12.9236 44.0513 13.8382 43.1333 14.9729C41.154 17.4216 38.651 19.3955 35.8085 20.7495C32.966 22.1036 29.8561 22.8034 26.7076 22.7975Z" fill="#FF5500"/>
<path d="M62.9828 11.4373H51.6343V22.7857H62.9828V11.4373Z" fill="#FF5500"/>
</g>
<defs>
<clipPath id="clip0_264_993">
<rect width="206.572" height="56.8583" fill="white"/>
</clipPath>
</defs>
</svg>
