<svg width="22" height="18" viewBox="0 0 22 18" fill="none" xmlns="http://www.w3.org/2000/svg">
<path d="M21.1623 2.68498C20.3989 3.02267 19.5893 3.24445 18.7603 3.34298C19.634 2.82041 20.288 1.99799 20.6003 1.02898C19.7803 1.51698 18.8813 1.85898 17.9443 2.04398C17.3149 1.37056 16.4807 0.923943 15.5713 0.773564C14.6618 0.623186 13.7282 0.77747 12.9156 1.21243C12.1029 1.64739 11.4567 2.33866 11.0774 3.17877C10.6981 4.01888 10.607 4.96076 10.8183 5.85798C9.15541 5.77463 7.52863 5.3425 6.04358 4.58964C4.55854 3.83678 3.24842 2.78003 2.1983 1.48798C1.82659 2.12643 1.63125 2.85221 1.6323 3.59098C1.6323 5.04098 2.3703 6.32198 3.4923 7.07198C2.82831 7.05108 2.17893 6.87176 1.5983 6.54898V6.60098C1.5985 7.56668 1.93267 8.5026 2.54414 9.25004C3.15562 9.99748 4.00678 10.5105 4.9533 10.702C4.33691 10.869 3.6906 10.8936 3.0633 10.774C3.33016 11.6052 3.8503 12.3322 4.55089 12.8531C5.25147 13.374 6.09742 13.6628 6.9703 13.679C6.10278 14.3603 5.10947 14.864 4.04718 15.1612C2.98488 15.4583 1.87442 15.5432 0.779297 15.411C2.69099 16.6404 4.91639 17.2931 7.1893 17.291C14.8823 17.291 19.0893 10.918 19.0893 5.39098C19.0893 5.21098 19.0843 5.02898 19.0763 4.85098C19.8952 4.25915 20.6019 3.526 21.1633 2.68598L21.1623 2.68498Z" fill="#2E383C"/>
</svg>
